HIERARCHY
ROOT Hips
{
	OFFSET 0.053599 88.859886 3.107447
	CHANNELS 6 Xposition Yposition Zposition Zrotation Yrotation Xrotation 
	JOINT Spine
	{
		OFFSET -0.000000 8.814246 -2.080107
		CHANNELS 3 Zrotation Yrotation Xrotation
		JOINT Spine1
		{
			OFFSET 0.000000 8.844141 0.000000
			CHANNELS 3 Zrotation Yrotation Xrotation
			JOINT Spine2
			{
				OFFSET -0.000000 11.682268 0.000000
				CHANNELS 3 Zrotation Yrotation Xrotation
				JOINT Spine3
				{
					OFFSET 0.000000 11.746700 0.000000
					CHANNELS 3 Zrotation Yrotation Xrotation
					JOINT Neck
					{
						OFFSET -0.000000 17.658264 -0.000000
						CHANNELS 3 Zrotation Yrotation Xrotation
						JOINT Neck1
						{
							OFFSET -0.000000 5.101515 -0.000000
							CHANNELS 3 Zrotation Yrotation Xrotation
							JOINT Head
							{
								OFFSET 0.000000 5.101515 0.000000
								CHANNELS 3 Zrotation Yrotation Xrotation
								JOINT HeadEnd
								{
									OFFSET 0.000000 11.655085 0.000000
									CHANNELS 3 Zrotation Yrotation Xrotation
									End Site
									{
										OFFSET 0.000000 0.000000 0.000000
									}
								}
							}
						}
					}
					JOINT RightShoulder
					{
						OFFSET -2.625389 11.175210 0.000000
						CHANNELS 3 Zrotation Yrotation Xrotation
						JOINT RightArm
						{
							OFFSET -0.000000 10.434715 -0.000000
							CHANNELS 3 Zrotation Yrotation Xrotation
							JOINT RightForeArm
							{
								OFFSET -0.000000 29.628420 0.000000
								CHANNELS 3 Zrotation Yrotation Xrotation
								JOINT RightHand
								{
									OFFSET -0.000000 22.857611 0.000000
									CHANNELS 3 Zrotation Yrotation Xrotation
									JOINT RightHandThumb1
									{
										OFFSET -2.867323 3.959563 2.944291
										CHANNELS 3 Zrotation Yrotation Xrotation
										JOINT RightHandThumb2
										{
											OFFSET 0.000000 3.350399 0.000000
											CHANNELS 3 Zrotation Yrotation Xrotation
											JOINT RightHandThumb3
											{
												OFFSET 0.000000 3.756509 -0.000000
												CHANNELS 3 Zrotation Yrotation Xrotation
												JOINT RightHandThumb4
												{
													OFFSET 0.000000 3.147345 0.000000
													CHANNELS 3 Zrotation Yrotation Xrotation
													End Site
													{
														OFFSET 0.000000 0.000000 0.000000
													}
												}
											}
										}
									}
									JOINT RightHandIndex1
									{
										OFFSET -0.086752 10.030893 2.345280
										CHANNELS 3 Zrotation Yrotation Xrotation
										JOINT RightHandIndex2
										{
											OFFSET -0.000000 4.061090 0.000000
											CHANNELS 3 Zrotation Yrotation Xrotation
											JOINT RightHandIndex3
											{
												OFFSET -0.000000 3.248873 0.000000
												CHANNELS 3 Zrotation Yrotation Xrotation
												JOINT RightHandIndex4
												{
													OFFSET 0.000000 2.639709 -0.000000
													CHANNELS 3 Zrotation Yrotation Xrotation
													End Site
													{
														OFFSET 0.000000 0.000000 0.000000
													}
												}
											}
										}
									}
									JOINT RightHandMiddle1
									{
										OFFSET 0.104102 9.502952 0.006768
										CHANNELS 3 Zrotation Yrotation Xrotation
										JOINT RightHandMiddle2
										{
											OFFSET 0.000000 4.568727 0.000000
											CHANNELS 3 Zrotation Yrotation Xrotation
											JOINT RightHandMiddle3
											{
												OFFSET 0.000000 3.654981 -0.000000
												CHANNELS 3 Zrotation Yrotation Xrotation
												JOINT RightHandMiddle4
												{
													OFFSET -0.000000 2.741236 -0.000000
													CHANNELS 3 Zrotation Yrotation Xrotation
													End Site
													{
														OFFSET 0.000000 0.000000 0.000000
													}
												}
											}
										}
									}
									JOINT RightHandRing1
									{
										OFFSET 0.086752 8.921708 -2.267442
										CHANNELS 3 Zrotation Yrotation Xrotation
										JOINT RightHandRing2
										{
											OFFSET -0.000000 4.061090 0.000000
											CHANNELS 3 Zrotation Yrotation Xrotation
											JOINT RightHandRing3
											{
												OFFSET 0.000000 3.654981 -0.000000
												CHANNELS 3 Zrotation Yrotation Xrotation
												JOINT RightHandRing4
												{
													OFFSET 0.000000 2.741236 -0.000000
													CHANNELS 3 Zrotation Yrotation Xrotation
													End Site
													{
														OFFSET 0.000000 0.000000 0.000000
													}
												}
											}
										}
									}
									JOINT RightHandPinky1
									{
										OFFSET -0.173504 7.976997 -4.467199
										CHANNELS 3 Zrotation Yrotation Xrotation
										JOINT RightHandPinky2
										{
											OFFSET 0.000000 3.350399 -0.000000
											CHANNELS 3 Zrotation Yrotation Xrotation
											JOINT RightHandPinky3
											{
												OFFSET -0.000000 2.842763 0.000000
												CHANNELS 3 Zrotation Yrotation Xrotation
												JOINT RightHandPinky4
												{
													OFFSET -0.000000 2.639709 0.000000
													CHANNELS 3 Zrotation Yrotation Xrotation
													End Site
													{
														OFFSET 0.000000 0.000000 0.000000
													}
												}
											}
										}
									}
									JOINT RightForeArmEnd
									{
										OFFSET 0.000000 0.000000 0.000000
										CHANNELS 3 Zrotation Yrotation Xrotation
										End Site
										{
											OFFSET 0.000000 0.000000 0.000000
										}
									}
								}
								JOINT RightArmEnd
								{
									OFFSET 0.000000 0.000000 0.000000
									CHANNELS 3 Zrotation Yrotation Xrotation
									End Site
									{
										OFFSET 0.000000 0.000000 0.000000
									}
								}
							}
						}
					}
					JOINT LeftShoulder
					{
						OFFSET 2.625389 11.175210 0.000000
						CHANNELS 3 Zrotation Yrotation Xrotation
						JOINT LeftArm
						{
							OFFSET 0.000000 10.813635 -0.000000
							CHANNELS 3 Zrotation Yrotation Xrotation
							JOINT LeftForeArm
							{
								OFFSET 0.000000 28.724781 0.000000
								CHANNELS 3 Zrotation Yrotation Xrotation
								JOINT LeftHand
								{
									OFFSET 0.644384 25.716167 -0.328871
									CHANNELS 3 Zrotation Yrotation Xrotation
									JOINT LeftHandThumb1
									{
										OFFSET 2.867323 3.959563 2.944291
										CHANNELS 3 Zrotation Yrotation Xrotation
										JOINT LeftHandThumb2
										{
											OFFSET 0.000000 3.350399 0.000000
											CHANNELS 3 Zrotation Yrotation Xrotation
											JOINT LeftHandThumb3
											{
												OFFSET -0.000000 3.756509 0.000000
												CHANNELS 3 Zrotation Yrotation Xrotation
												JOINT LeftHandThumb4
												{
													OFFSET -0.000000 3.100000 0.000000
													CHANNELS 3 Zrotation Yrotation Xrotation
													End Site
													{
														OFFSET 0.000000 0.000000 0.000000
													}
												}
											}
										}
									}
									JOINT LeftHandIndex1
									{
										OFFSET 0.086752 10.030893 2.345280
										CHANNELS 3 Zrotation Yrotation Xrotation
										JOINT LeftHandIndex2
										{
											OFFSET -0.000000 4.061090 -0.000000
											CHANNELS 3 Zrotation Yrotation Xrotation
											JOINT LeftHandIndex3
											{
												OFFSET 0.000000 3.248873 -0.000000
												CHANNELS 3 Zrotation Yrotation Xrotation
												JOINT LeftHandIndex4
												{
													OFFSET 0.000000 2.639709 -0.000000
													CHANNELS 3 Zrotation Yrotation Xrotation
													End Site
													{
														OFFSET 0.000000 0.000000 0.000000
													}
												}
											}
										}
									}
									JOINT LeftHandMiddle1
									{
										OFFSET -0.104102 9.502952 0.006768
										CHANNELS 3 Zrotation Yrotation Xrotation
										JOINT LeftHandMiddle2
										{
											OFFSET -0.000000 4.568727 -0.000000
											CHANNELS 3 Zrotation Yrotation Xrotation
											JOINT LeftHandMiddle3
											{
												OFFSET 0.000000 3.654981 0.000000
												CHANNELS 3 Zrotation Yrotation Xrotation
												JOINT LeftHandMiddle4
												{
													OFFSET 0.000000 2.741236 -0.000000
													CHANNELS 3 Zrotation Yrotation Xrotation
													End Site
													{
														OFFSET 0.000000 0.000000 0.000000
													}
												}
											}
										}
									}
									JOINT LeftHandRing1
									{
										OFFSET -0.086752 8.921708 -2.267442
										CHANNELS 3 Zrotation Yrotation Xrotation
										JOINT LeftHandRing2
										{
											OFFSET 0.000000 4.061090 0.000000
											CHANNELS 3 Zrotation Yrotation Xrotation
											JOINT LeftHandRing3
											{
												OFFSET 0.000000 3.654981 0.000000
												CHANNELS 3 Zrotation Yrotation Xrotation
												JOINT LeftHandRing4
												{
													OFFSET 0.000000 2.741236 0.000000
													CHANNELS 3 Zrotation Yrotation Xrotation
													End Site
													{
														OFFSET 0.000000 0.000000 0.000000
													}
												}
											}
										}
									}
									JOINT LeftHandPinky1
									{
										OFFSET 0.173504 7.976997 -4.467199
										CHANNELS 3 Zrotation Yrotation Xrotation
										JOINT LeftHandPinky2
										{
											OFFSET -0.000000 3.350399 -0.000000
											CHANNELS 3 Zrotation Yrotation Xrotation
											JOINT LeftHandPinky3
											{
												OFFSET 0.000000 2.842763 0.000000
												CHANNELS 3 Zrotation Yrotation Xrotation
												JOINT LeftHandPinky4
												{
													OFFSET -0.000000 2.639709 -0.000000
													CHANNELS 3 Zrotation Yrotation Xrotation
													End Site
													{
														OFFSET 0.000000 0.000000 0.000000
													}
												}
											}
										}
									}
									JOINT LeftForeArmEnd
									{
										OFFSET 0.000000 0.000000 0.000000
										CHANNELS 3 Zrotation Yrotation Xrotation
										End Site
										{
											OFFSET 0.000000 0.000000 0.000000
										}
									}
								}
								JOINT LeftArmEnd
								{
									OFFSET 0.000000 0.000000 0.000000
									CHANNELS 3 Zrotation Yrotation Xrotation
									End Site
									{
										OFFSET 0.000000 0.000000 0.000000
									}
								}
							}
						}
					}
				}
			}
		}
	}
	JOINT RightUpLeg
	{
		OFFSET -11.289943 0.000000 0.000000
		CHANNELS 3 Zrotation Yrotation Xrotation
		JOINT RightLeg
		{
			OFFSET 0.000000 -38.200325 0.000000
			CHANNELS 3 Zrotation Yrotation Xrotation
			JOINT RightFoot
			{
				OFFSET -0.000000 -39.900856 -0.000000
				CHANNELS 3 Zrotation Yrotation Xrotation
				JOINT RightToeBase
				{
					OFFSET 0.000000 0.000000 15.261641
					CHANNELS 3 Zrotation Yrotation Xrotation
					JOINT RightToeBaseEnd
					{
						OFFSET 0.000000 0.000000 7.370709
						CHANNELS 3 Zrotation Yrotation Xrotation
						End Site
						{
							OFFSET 0.000000 0.000000 0.000000
						}
					}
				}
				JOINT RightLegEnd
				{
					OFFSET 0.000000 0.000000 0.000000
					CHANNELS 3 Zrotation Yrotation Xrotation
					End Site
					{
						OFFSET 0.000000 0.000000 0.000000
					}
				}
			}
			JOINT RightUpLegEnd
			{
				OFFSET 0.000000 0.000000 0.000000
				CHANNELS 3 Zrotation Yrotation Xrotation
				End Site
				{
					OFFSET 0.000000 0.000000 0.000000
				}
			}
		}
	}
	JOINT LeftUpLeg
	{
		OFFSET 11.315661 -0.000000 0.000000
		CHANNELS 3 Zrotation Yrotation Xrotation
		JOINT LeftLeg
		{
			OFFSET -0.000000 -38.200325 -0.000000
			CHANNELS 3 Zrotation Yrotation Xrotation
			JOINT LeftFoot
			{
				OFFSET 0.000000 -39.900856 -0.000000
				CHANNELS 3 Zrotation Yrotation Xrotation
				JOINT LeftToeBase
				{
					OFFSET -0.000000 -0.000000 15.261641
					CHANNELS 3 Zrotation Yrotation Xrotation
					JOINT LeftToeBaseEnd
					{
						OFFSET 0.000000 -0.000000 7.539996
						CHANNELS 3 Zrotation Yrotation Xrotation
						End Site
						{
							OFFSET 0.000000 0.000000 0.000000
						}
					}
				}
				JOINT LeftLegEnd
				{
					OFFSET 0.000000 0.000000 0.000000
					CHANNELS 3 Zrotation Yrotation Xrotation
					End Site
					{
						OFFSET 0.000000 0.000000 0.000000
					}
				}
			}
			JOINT LeftUpLegEnd
			{
				OFFSET 0.000000 0.000000 0.000000
				CHANNELS 3 Zrotation Yrotation Xrotation
				End Site
				{
					OFFSET 0.000000 0.000000 0.000000
				}
			}
		}
	}
}
MOTION
Frames: 4
Frame Time: 0.016667
-0.271697 87.557938 2.376033 0.345287 0.514417 -10.356364 1.044774 0.220786 7.168070 0.539424 0.058329 1.491569 -0.648552 0.944086 5.464798 -1.088398 0.721817 5.180654 1.710154 -0.550495 3.255201 0.196556 0.156644 -3.550827 -0.139393 -0.921322 -20.699781 0.000000 0.000000 0.000000 91.357849 -0.670595 7.819855 67.263702 -9.762341 -0.849799 -0.637157 19.027243 61.910236 -3.074193 19.259649 -6.682141 7.851176 -1.529799 41.052994 -0.000013 0.000009 -19.225767 0.000017 0.000058 -13.226753 0.000004 0.000007 -0.000023 0.180260 0.078700 -0.338641 1.913134 -0.048308 0.162162 1.819818 -0.021253 0.138375 -0.000009 0.000033 -0.000006 0.044987 0.022618 -4.287640 1.646600 -0.033755 0.057500 1.645909 -0.010923 0.062191 -0.000004 0.000031 0.000008 2.171909 -0.049757 -9.539433 1.940112 0.062775 -0.147348 1.981553 0.029257 -0.110871 -0.000025 0.000460 0.000007 4.836938 -0.082393 -15.890568 2.820610 0.168955 -0.333313 2.876724 0.053794 -0.237855 -0.000423 0.000003 -0.000025 0.000000 0.000000 0.000000 0.000000 0.000000 0.000000 -88.555870 0.206633 1.427381 -74.631195 -2.344888 -13.164458 -0.255551 -17.554117 90.629860 0.178513 -25.625046 0.805529 -7.349868 1.318640 41.320423 0.000024 0.000022 -18.190868 0.000045 -0.000019 -12.574679 0.001842 0.000025 0.002704 2.235729 0.125718 4.423344 -2.388894 -0.015561 -0.046045 -2.575585 0.004382 -0.069293 -0.000001 -0.000772 -0.000017 -0.308414 0.065945 -0.817101 -2.717134 -0.016231 -0.041478 -2.549047 0.001640 -0.034122 -0.000270 -0.000024 -0.000079 -6.582137 -0.020130 -8.538033 -4.599539 0.038253 -0.000338 -4.113503 -0.009849 0.004946 -0.000637 0.000013 0.000007 -10.905285 -0.056505 -16.774376 -6.745330 0.031338 0.078615 -6.754120 -0.030731 0.032564 0.000106 -0.000006 -0.000049 0.000000 0.000000 0.000000 0.000000 0.000000 0.000000 -1.823341 -10.394930 15.542962 -0.062266 -0.718769 4.212633 -2.161663 -7.668249 17.051226 -1.102374 0.778426 -17.974649 0.000000 0.000000 0.000000 0.000000 0.000000 0.000000 0.000000 0.000000 0.000000 -1.411689 -4.134706 10.784520 0.036585 0.297978 8.278380 4.109078 -1.406100 16.920805 0.166291 -0.414233 -20.448515 0.000000 0.000000 0.000000 0.000000 0.000000 0.000000 0.000000 0.000000 0.000000 
-0.273869 87.550751 2.373112 0.352024 0.607072 -10.354508 1.034235 0.225038 7.168932 0.522984 0.068950 1.485376 -0.638093 0.951272 5.489934 -1.083010 0.726277 5.177261 1.767905 -0.571422 3.273901 0.208756 0.161008 -3.528770 -0.133581 -0.918350 -20.673059 0.000000 0.000000 0.000000 91.319984 -0.655843 7.834286 67.282166 -9.576425 -0.740740 -0.621358 19.128992 61.725838 -2.463472 20.008438 -6.768128 8.024752 -1.552411 40.971893 -0.000012 0.000011 -19.646015 0.000016 0.000059 -13.516109 0.000005 0.000006 -0.000023 1.088012 0.077721 -0.665902 2.265218 -0.054241 0.166450 2.173852 -0.026880 0.141936 -0.000010 0.000033 -0.000007 0.933036 0.021731 -4.501494 1.993381 -0.035887 0.059088 1.997023 -0.012784 0.063596 -0.000004 0.000031 0.000007 3.052552 -0.048488 -9.600287 2.328831 0.066470 -0.148380 2.370347 0.031777 -0.111197 -0.000023 0.000458 0.000008 5.631793 -0.081346 -15.798595 3.206056 0.177102 -0.330499 3.263887 0.060959 -0.235002 -0.000408 0.000002 -0.000024 0.000000 0.000000 0.000000 0.000000 0.000000 0.000000 -88.534065 0.203387 1.447674 -74.564766 -2.359860 -13.151952 -0.281177 -17.593546 90.384850 -0.735224 -26.515579 0.612805 -7.556195 1.345847 41.221699 0.000025 0.000022 -18.703527 0.000044 -0.000020 -12.930543 0.001886 0.000024 0.002657 1.065515 0.124725 3.935617 -2.648799 -0.017682 -0.045205 -2.835145 0.002486 -0.067865 -0.000001 -0.000832 -0.000016 -1.406129 0.065372 -1.170950 -2.995836 -0.017149 -0.040493 -2.832548 0.000988 -0.033426 -0.000279 -0.000022 -0.000075 -7.668795 -0.019393 -8.691039 -4.996682 0.039214 -0.002621 -4.511858 -0.009135 0.003013 -0.000602 0.000013 0.000007 -11.936114 -0.056245 -16.731449 -7.198265 0.033799 0.065388 -7.209399 -0.029139 0.020907 0.000076 -0.000005 -0.000049 0.000000 0.000000 0.000000 0.000000 0.000000 0.000000 -1.822725 -10.413612 15.525960 -0.063077 -0.718976 4.260310 -2.166457 -7.700239 17.014416 -1.101262 0.779540 -17.975340 0.000000 0.000000 0.000000 0.000000 0.000000 0.000000 0.000000 0.000000 0.000000 -1.408195 -4.163306 10.737440 0.037399 0.298092 8.337732 4.118639 -1.469774 16.909246 0.164757 -0.413363 -20.441826 0.000000 0.000000 0.000000 0.000000 0.000000 0.000000 0.000000 0.000000 0.000000 
-0.275547 87.542625 2.368464 0.359882 0.699990 -10.352179 1.025069 0.229373 7.170981 0.505375 0.080521 1.479619 -0.627045 0.957293 5.520259 -1.077080 0.729856 5.175187 1.818889 -0.590979 3.280119 0.220016 0.166104 -3.513356 -0.128780 -0.915450 -20.638021 0.000000 0.000000 0.000000 91.273903 -0.640717 7.853371 67.321281 -9.403251 -0.666418 -0.605917 19.235348 61.573696 -1.897307 20.724714 -6.842443 8.196263 -1.574205 40.892120 -0.000012 0.000012 -20.061855 0.000015 0.000059 -13.802060 0.000005 0.000005 -0.000023 1.982574 0.076781 -1.001674 2.642941 -0.059877 0.168463 2.554118 -0.032209 0.143583 -0.000010 0.000033 -0.000009 1.807629 0.020905 -4.722368 2.363307 -0.037880 0.059964 2.371789 -0.014553 0.064448 -0.000004 0.000031 0.000006 3.912162 -0.047168 -9.672989 2.733808 0.070019 -0.148976 2.775711 0.034212 -0.111140 -0.000021 0.000453 0.000008 6.398450 -0.080208 -15.720363 3.599551 0.185138 -0.327226 3.659317 0.068197 -0.231777 -0.000393 0.000001 -0.000023 0.000000 0.000000 0.000000 0.000000 0.000000 0.000000 -88.505478 0.199600 1.478835 -74.509262 -2.332413 -13.148820 -0.305948 -17.623901 90.125702 -1.566753 -27.282427 0.417477 -7.749718 1.370375 41.129593 0.000025 0.000022 -19.186956 0.000043 -0.000020 -13.267328 0.001934 0.000023 0.002604 -0.033111 0.123745 3.471611 -2.943124 -0.019737 -0.044081 -3.129228 0.000581 -0.066348 -0.000001 -0.000890 -0.000015 -2.425171 0.064858 -1.508060 -3.304999 -0.018026 -0.039566 -3.146703 0.000341 -0.032727 -0.000286 -0.000021 -0.000071 -8.660942 -0.018577 -8.836931 -5.404714 0.040207 -0.004760 -4.922834 -0.008352 0.001234 -0.000556 0.000013 0.000008 -12.868302 -0.055704 -16.687424 -7.646278 0.036478 0.053681 -7.660590 -0.027282 0.010836 0.000048 -0.000003 -0.000049 0.000000 0.000000 0.000000 0.000000 0.000000 0.000000 -1.824942 -10.435541 15.509192 -0.063848 -0.718729 4.307490 -2.168736 -7.739871 16.980000 -1.099758 0.780831 -17.976021 0.000000 0.000000 0.000000 0.000000 0.000000 0.000000 0.000000 0.000000 0.000000 -1.408679 -4.202300 10.683929 0.038347 0.298450 8.402267 4.129014 -1.532921 16.900663 0.163239 -0.413322 -20.436508 0.000000 0.000000 0.000000 0.000000 0.000000 0.000000 0.000000 0.000000 0.000000 
-0.276763 87.534096 2.361827 0.368062 0.791651 -10.349022 1.018016 0.233312 7.174326 0.487329 0.092697 1.475894 -0.616882 0.961448 5.552557 -1.071187 0.732186 5.173886 1.863094 -0.608773 3.276674 0.230037 0.171801 -3.502762 -0.125281 -0.912959 -20.595882 0.000000 0.000000 0.000000 91.218346 -0.625406 7.876730 67.383789 -9.251154 -0.623894 -0.590746 19.339521 61.451782 -1.390475 21.396891 -6.904187 8.359712 -1.594664 40.816189 -0.000011 0.000014 -20.458855 0.000015 0.000060 -14.074679 0.000006 0.000005 -0.000023 2.836102 0.076013 -1.331393 3.022882 -0.065043 0.168699 2.937387 -0.037086 0.143730 -0.000010 0.000033 -0.000010 2.641912 0.020196 -4.939569 2.733450 -0.039673 0.060258 2.747052 -0.016179 0.064858 -0.000003 0.000030 0.000006 4.727639 -0.045867 -9.749925 3.133457 0.073315 -0.149086 3.176018 0.036472 -0.110687 -0.000020 0.000442 0.000009 7.119383 -0.079033 -15.651540 3.982927 0.192671 -0.323080 4.044748 0.075110 -0.227842 -0.000379 0.000001 -0.000022 0.000000 0.000000 0.000000 0.000000 0.000000 0.000000 -88.468697 0.194182 1.519632 -74.466492 -2.272504 -13.147758 -0.329446 -17.647472 89.850388 -2.298186 -27.935316 0.223903 -7.931567 1.392529 41.043537 0.000026 0.000023 -19.643768 0.000042 -0.000021 -13.586272 0.001982 0.000023 0.002552 -1.067415 0.122897 3.032636 -3.269120 -0.021511 -0.041781 -3.455236 -0.001092 -0.063910 -0.000001 -0.000947 -0.000014 -3.374884 0.064443 -1.825668 -3.641644 -0.018769 -0.038342 -3.487981 -0.000223 -0.031749 -0.000290 -0.000019 -0.000067 -9.570565 -0.017744 -8.970244 -5.821615 0.041100 -0.007233 -5.343866 -0.007610 -0.000737 -0.000504 0.000014 0.000008 -13.713166 -0.055050 -16.635576 -8.086996 0.038983 0.042043 -8.104830 -0.025507 0.001247 0.000026 -0.000003 -0.000050 0.000000 0.000000 0.000000 0.000000 0.000000 0.000000 -1.829927 -10.462139 15.491262 -0.064605 -0.718065 4.353306 -2.168967 -7.786699 16.950272 -1.097833 0.782055 -17.977859 0.000000 0.000000 0.000000 0.000000 0.000000 0.000000 0.000000 0.000000 0.000000 -1.412032 -4.249022 10.623895 0.039443 0.299116 8.470573 4.139905 -1.596702 16.895908 0.161813 -0.414191 -20.433468 0.000000 0.000000 0.000000 0.000000 0.000000 0.000000 0.000000 0.000000 0.000000 
